<svg width="48" height="48" viewBox="0 0 48 48" fill="none" xmlns="http://www.w3.org/2000/svg">
<path fill-rule="evenodd" clip-rule="evenodd" d="M5.8 9.8002C5.74696 9.8002 5.69609 9.82127 5.65858 9.85877C5.62107 9.89628 5.6 9.94715 5.6 10.0002V17.2023C6.61199 17.7644 7.4908 18.5482 8.16694 19.5015C9.09949 20.8162 9.60041 22.3883 9.60041 24.0002C9.60041 25.6121 9.09949 27.1842 8.16694 28.4989C7.4908 29.4522 6.61199 30.236 5.6 30.7981V38.2002H41.8C41.853 38.2002 41.9039 38.1791 41.9414 38.1416C41.9789 38.1041 42 38.0532 42 38.0002V30.8029C40.9847 30.2429 40.1031 29.459 39.4258 28.504C38.4925 27.1881 37.994 25.6133 38 24.0002C37.994 22.3871 38.4925 20.8123 39.4258 19.4964C40.1031 18.5414 40.9847 17.7575 42 17.1975V10.0002C42 9.94715 41.9789 9.89628 41.9414 9.85877C41.9039 9.82127 41.853 9.8002 41.8 9.8002H5.8ZM3.11299 7.31319C3.82563 6.60055 4.79218 6.2002 5.8 6.2002H41.8C42.8078 6.2002 43.7744 6.60055 44.487 7.31319C45.1996 8.02583 45.6 8.99238 45.6 10.0002V19.6433L44.387 20.0618C43.5702 20.3436 42.8621 20.8741 42.3623 21.579C41.8624 22.2838 41.5958 23.1275 41.6 23.9915L41.6001 24.0089C41.5959 24.8729 41.8624 25.7166 42.3623 26.4214C42.8621 27.1262 43.5702 27.6568 44.387 27.9386L45.6 28.3571V38.0002C45.6 39.008 45.1996 39.9746 44.487 40.6872C43.7744 41.3998 42.8078 41.8002 41.8 41.8002H2V28.3635L3.20494 27.9414C4.02192 27.6552 4.72977 27.1222 5.23058 26.4162C5.73139 25.7101 6.00041 24.8658 6.00041 24.0002C6.00041 23.1345 5.73139 22.2903 5.23058 21.5842C4.72977 20.8782 4.02192 20.3452 3.20494 20.059L2 19.6369V10.0002C2 8.99237 2.40036 8.02583 3.11299 7.31319Z" fill="black"/>
<path fill-rule="evenodd" clip-rule="evenodd" d="M31.6 14H16V22H19.6V17.6H28V22H31.6V14ZM31.6 25.6H28V30H19.6V25.6H16V33.6H31.6V25.6Z" fill="black"/>
</svg>
