<svg width="48" height="48" viewBox="0 0 48 48" fill="none" xmlns="http://www.w3.org/2000/svg">
<path fill-rule="evenodd" clip-rule="evenodd" d="M6.0002 9.8002C5.94715 9.8002 5.89628 9.82127 5.85877 9.85877C5.82127 9.89628 5.8002 9.94715 5.8002 10.0002V17.2023C6.81218 17.7644 7.691 18.5482 8.36714 19.5015C9.29968 20.8162 9.8006 22.3883 9.8006 24.0002C9.8006 25.6121 9.29968 27.1842 8.36714 28.4989C7.691 29.4522 6.81218 30.236 5.8002 30.7981V38.2002H42.0002C42.0532 38.2002 42.1041 38.1791 42.1416 38.1416C42.1791 38.1041 42.2002 38.0532 42.2002 38.0002V30.8029C41.1849 30.2429 40.3033 29.459 39.626 28.504C38.6927 27.1881 38.1942 25.6133 38.2002 24.0002C38.1942 22.3871 38.6927 20.8123 39.626 19.4964C40.3033 18.5414 41.1849 17.7575 42.2002 17.1975V10.0002C42.2002 9.94715 42.1791 9.89628 42.1416 9.85877C42.1041 9.82127 42.0532 9.8002 42.0002 9.8002H6.0002ZM3.31319 7.31319C4.02583 6.60055 4.99237 6.2002 6.0002 6.2002H42.0002C43.008 6.2002 43.9746 6.60055 44.6872 7.31319C45.3998 8.02583 45.8002 8.99238 45.8002 10.0002V19.6433L44.5872 20.0618C43.7704 20.3436 43.0623 20.8741 42.5625 21.579C42.0626 22.2838 41.796 23.1275 41.8002 23.9915L41.8003 24.0089C41.7961 24.8729 42.0626 25.7166 42.5625 26.4214C43.0623 27.1262 43.7704 27.6568 44.5872 27.9386L45.8002 28.3571V38.0002C45.8002 39.008 45.3998 39.9746 44.6872 40.6872C43.9746 41.3998 43.008 41.8002 42.0002 41.8002H2.2002V28.3635L3.40514 27.9414C4.22211 27.6552 4.92997 27.1222 5.43078 26.4162C5.93159 25.7101 6.2006 24.8658 6.2006 24.0002C6.2006 23.1345 5.93159 22.2903 5.43078 21.5842C4.92997 20.8782 4.22211 20.3452 3.40514 20.059L2.2002 19.6369V10.0002C2.2002 8.99237 2.60055 8.02583 3.31319 7.31319Z" fill="black"/>
<path fill-rule="evenodd" clip-rule="evenodd" d="M31.4402 17.0802L19.4402 33.0802L16.5602 30.9202L28.5602 14.9202L31.4402 17.0802Z" fill="black"/>
<path d="M18 22.0002C19.7673 22.0002 21.2 20.657 21.2 19.0002C21.2 17.3433 19.7673 16.0002 18 16.0002C16.2327 16.0002 14.8 17.3433 14.8 19.0002C14.8 20.657 16.2327 22.0002 18 22.0002Z" fill="black"/>
<path d="M30 32.0002C31.7673 32.0002 33.2 30.657 33.2 29.0002C33.2 27.3433 31.7673 26.0002 30 26.0002C28.2327 26.0002 26.8 27.3433 26.8 29.0002C26.8 30.657 28.2327 32.0002 30 32.0002Z" fill="black"/>
</svg>
