<?xml version="1.0" encoding="utf-8"?>
<!-- Generator: Adobe Illustrator 25.1.0, SVG Export Plug-In . SVG Version: 6.00 Build 0)  -->
<svg version="1.1" id="图层_1" xmlns="http://www.w3.org/2000/svg" xmlns:xlink="http://www.w3.org/1999/xlink" x="0px" y="0px"
	 viewBox="0 0 1400 1400" style="enable-background:new 0 0 1400 1400;" xml:space="preserve">
<style type="text/css">
	.st0{opacity:0.5;}
	.st1{fill:none;stroke:#A90420;stroke-width:4;stroke-miterlimit:10;}
	.st2{fill:#A90420;}
</style>
<g class="st0">
	<path class="st1" d="M1182.2,700c0,266-216.4,482.3-482.3,482.3S217.6,965.8,217.6,700c0-266,216.4-482.3,482.3-482.3
		S1182.2,433.9,1182.2,700 M1254.7,700c0-306.5-248.4-554.9-554.9-554.9S144.8,393.4,144.8,700s248.4,554.9,554.9,554.9
		S1254.7,1006.4,1254.7,700L1254.7,700z"/>
	<path class="st1" d="M1327.2,700c0,346.1-281.5,627.7-627.4,627.7c-346,0-627.4-281.6-627.4-627.7S353.8,72.3,699.8,72.3
		C1045.8,72.3,1327.2,353.9,1327.2,700"/>
	<g>
		<path class="st2" d="M1395.8,700c0,94-18.4,185.2-54.7,271c-17.4,41.3-39,81-64.2,118.3c-24.9,36.9-53.5,71.5-85,103
			s-66.2,60.1-103,85c-37.2,25.1-77,46.7-118.2,64.2c-85.8,36.3-177,54.7-270.9,54.7s-185.1-18.4-270.9-54.7
			c-41.2-17.4-81-39-118.2-64.2c-36.9-24.9-71.5-53.5-103-85s-60.1-66.2-85-103c-25.1-37.2-46.7-77-64.2-118.3
			C22.8,886.5,4.4,797.1,3.8,704.8V700V3.8h64.5v385.4v17.1l7.6-15.3C132.7,276.5,219.8,179.8,328,111.3C439,41,567.7,3.8,699.8,3.8
			c94,0,185.1,18.4,270.9,54.7c41.2,17.4,81,39,118.2,64.2c36.9,24.9,71.5,53.5,103,85s60.1,66.2,85,103
			c25.1,37.2,46.7,77,64.2,118.3C1377.3,514.8,1395.8,606,1395.8,700 M1399.8,700c0-386.7-313.4-700.2-700-700.2
			c-275,0-513,158.6-627.4,389.4l0,0l0,0V-0.2H-0.2V700l0,0c0,386.7,313.4,700.2,700,700.2S1399.8,1086.7,1399.8,700L1399.8,700z"/>
	</g>
	<g>
		<path class="st2" d="M734.2,181.9c0,17.9-14.6,32.5-32.5,32.5s-32.5-14.6-32.5-32.5s14.6-32.5,32.5-32.5
			C719.7,149.4,734.2,164,734.2,181.9 M738.2,181.9c0-20.1-16.3-36.5-36.5-36.5c-20.1,0-36.5,16.3-36.5,36.5s16.3,36.5,36.5,36.5
			C721.8,218.4,738.2,202,738.2,181.9L738.2,181.9z"/>
	</g>
	<g>
		<path class="st2" d="M513,73.3c0,17.9-14.6,32.5-32.5,32.5S448,91.2,448,73.3s14.7-32.4,32.6-32.4C498.5,40.9,513,55.4,513,73.3
			 M517,73.3c0-20.1-16.3-36.5-36.5-36.5c-20.1,0-36.5,16.3-36.5,36.5s16.3,36.5,36.5,36.5S517,93.5,517,73.3L517,73.3z"/>
	</g>
	<g>
		<path class="st2" d="M230.7,387.9c0,17.9-14.6,32.5-32.5,32.5s-32.5-14.6-32.5-32.5s14.6-32.5,32.5-32.5
			C216.2,355.4,230.7,369.9,230.7,387.9 M234.7,387.9c0-20.1-16.3-36.5-36.5-36.5c-20.1,0-36.5,16.3-36.5,36.5s16.3,36.5,36.5,36.5
			S234.7,408,234.7,387.9L234.7,387.9z"/>
	</g>
</g>
</svg>
