<?xml version="1.0" encoding="utf-8"?>
<!-- Generator: Adobe Illustrator 25.1.0, SVG Export Plug-In . SVG Version: 6.00 Build 0)  -->
<svg version="1.1" id="图层_1" xmlns="http://www.w3.org/2000/svg" xmlns:xlink="http://www.w3.org/1999/xlink" x="0px" y="0px"
	 viewBox="0 0 1400 1400" style="enable-background:new 0 0 1400 1400;" xml:space="preserve">
<style type="text/css">
	.st0{fill:#A90420;}
</style>
<g>
	<path class="st0" d="M701.4,1253.6c306.5,0,554.9-248.4,554.9-554.9l0,0c0-306.5-248.4-554.9-554.9-554.9S146.5,392.2,146.5,698.7
		l0,0C146.5,1005.2,394.9,1253.6,701.4,1253.6 M701.4,1181.1c-266,0-482.3-216.4-482.3-482.3l0,0c0-266,216.4-482.3,482.3-482.3
		c266,0,482.3,216.4,482.3,482.3l0,0C1183.7,964.7,967.3,1181.1,701.4,1181.1"/>
	<path class="st0" d="M701.4-1.5C314.8-1.5,1.4,312,1.4,698.7l0,0l0,0l0,0l0,0c0,386.8,313.4,700.3,700,700.3
		c275,0,513-158.6,627.4-389.4V1399h72.5V701.3c0-0.8,0-1.7,0-2.5l0,0l0,0l0,0l0,0C1401.4,312,1088-1.5,701.4-1.5 M701.4,71.1
		c346,0,627.4,281.6,627.4,627.7s-281.5,627.7-627.4,627.7S73.9,1044.8,73.9,698.7S355.4,71.1,701.4,71.1"/>
</g>
</svg>
